<?xml version="1.0" encoding="utf-8"?>
<!-- Generator: Adobe Illustrator 23.0.2, SVG Export Plug-In . SVG Version: 6.00 Build 0)  -->
<!DOCTYPE svg PUBLIC "-//W3C//DTD SVG 1.1//EN" "http://www.w3.org/Graphics/SVG/1.1/DTD/svg11.dtd" [
	<!ENTITY ns_extend "http://ns.adobe.com/Extensibility/1.0/">
	<!ENTITY ns_ai "http://ns.adobe.com/AdobeIllustrator/10.0/">
	<!ENTITY ns_graphs "http://ns.adobe.com/Graphs/1.0/">
	<!ENTITY ns_vars "http://ns.adobe.com/Variables/1.0/">
	<!ENTITY ns_imrep "http://ns.adobe.com/ImageReplacement/1.0/">
	<!ENTITY ns_sfw "http://ns.adobe.com/SaveForWeb/1.0/">
	<!ENTITY ns_custom "http://ns.adobe.com/GenericCustomNamespace/1.0/">
	<!ENTITY ns_adobe_xpath "http://ns.adobe.com/XPath/1.0/">
]>
<svg version="1.1" id="Layer_1" xmlns:x="&ns_extend;" xmlns:i="&ns_ai;" xmlns:graph="&ns_graphs;"
	 xmlns="http://www.w3.org/2000/svg" xmlns:xlink="http://www.w3.org/1999/xlink" x="0px" y="0px" viewBox="0 0 1216.9 720"
	 style="enable-background:new 0 0 1216.9 720;" xml:space="preserve">
<metadata>
	<sfw  xmlns="&ns_sfw;">
		<slices></slices>
		<sliceSourceBounds  bottomLeftOrigin="true" height="720" width="1216.9" x="-306.3" y="149.1"></sliceSourceBounds>
	</sfw>
</metadata>
<path d="M375.8,602.6c0.1-43.3-16.1-78.9-50.1-105.5c-24-18.8-51.9-27.6-82.4-26.2c-34.5,1.5-64.2,14.8-88.1,40.2
	c-23.9,25.4-34.8,55.8-34.6,90.6c-2.5,1.1-5,0.7-7.5,0.4c-1.2-0.1-2.4-0.4-3.6-0.4c-9.6-0.2-19.2-1.1-28.8-2.2
	c-9.5-1.1-18.8-2.5-28-5.1c-10.4-2.9-20.4-6.5-29.1-13.1c-11.4-8.5-17.9-20-20.1-33.9c-0.6-3.6-0.8-7.2-0.9-10.8
	c-0.3-7.8-0.4-15.7-0.6-23.5c-0.1-4.9,0-9.9-0.7-14.8c-0.9-7.1-0.5-14.2-0.7-21.3c-0.2-10-0.5-20-0.6-30c0-5.4,0.1-10.9,0.6-16.2
	c1.4-15.4,2.2-31,5.2-46.2c2.9-14.6,6.6-28.9,13.6-42.1c5.7-10.7,13.2-19.6,23.9-25.4c5.3-2.8,10.9-5.3,16.4-7.7
	c12-5.3,24-10.6,36.1-15.8c11.8-5,23.6-9.8,35.4-14.7c16.1-6.5,32.2-13,48.3-19.5c6.6-2.6,13.3-5.1,19.9-7.6c2.1-0.8,3.3-2,4.4-4
	c8.6-16,17-32.2,26.1-48c13.8-24,28.4-47.4,45-69.5c6.9-9.2,13.7-18.3,21.6-26.7c5-5.4,10-10.8,15.3-15.9c6.6-6.2,13.7-11.8,21.8-16
	c6.5-3.4,13.2-5.6,20.7-5.6c44.4,0.1,88.9,0.1,133.3,0.1c1.4,0,2.8,0,4.6,0c0.1-1.6,0.3-2.9,0.3-4.2c0-6.4-0.1-12.8,0-19.2
	c0.3-14.9,6-27.4,17-37.4c4.1-3.7,9.1-5.7,14.8-5.7c9.8,0.1,19.6,0.1,29.3,0c7.1-0.1,13,2.5,17.8,7.4c8.1,8.1,13.2,17.9,14.4,29.3
	c0.8,7.9,0.5,15.9,0.7,23.8c0,1.8,0,3.6,0,5.5c1.4,0.2,2.3,0.3,3.2,0.3c1.4,0,2.9,0,4.3,0c169.7,0,339.3,0,509-0.1
	c5.7,0,10.2,2,14.3,5.8c7.8,7.3,13.1,16.3,17.9,25.7c8.4,16.5,15.1,33.6,20.9,51.1c2,5.9,4.3,11.8,6.2,17.7
	c4.9,16.3,9.8,32.5,14.4,48.9c4.2,15,8.2,30,11.8,45.1c4.2,17.2,8.1,34.5,11.9,51.9c4.9,22.7,9.3,45.6,12.8,68.6
	c1,6.9,1.3,13.9,2.6,20.7c0.9,4.8,0.7,9.6,0.7,14.4c0.1,43.8,0.3,87.7-0.1,131.5c-0.1,12.2-2.7,24.2-9.5,34.8
	c-6.3,9.8-15,16.3-26.5,18.6c-4.8,1-9.8,1.5-14.7,1.6c-14.4,0.2-28.7,0.1-43.1,0.1c-1.4,0-2.9,0-4.4,0c-0.3-1.2-0.6-2-0.6-2.7
	c0-12.2-1.9-24.2-5.4-35.9c-3.1-10.3-7.6-20-13.1-29.2c-6.6-11-14.8-20.6-24.3-29c-15-13.3-32.3-22.7-51.8-27.8
	c-8.5-2.2-17.2-3.4-26-4c-20.5-1.3-40.1,2.5-58.8,10.6c-11.1,4.8-21.2,11.3-30.5,19.3c-9.5,8.2-17.8,17.3-24.6,27.8
	c-6.1,9.6-11,19.8-14.4,30.6c-2.6,8.1-4.3,16.3-5.3,24.7c-0.5,4-0.6,8.2-0.8,12.2c-0.1,3.1-0.3,3.3-3.3,3.4c-1.1,0-2.2,0-3.3,0
	c-158.2,0-316.4,0-474.6,0C380,602.8,378.1,602.7,375.8,602.6z M515.1,367.3c0,1.3,0,2.5,0,3.6c0,8.8,0,17.6,0,26.4
	c0,5.7-0.4,5.6,5.5,5.6c228.7,0,457.4,0,686.1,0c0.8,0,1.7,0,2.5,0c2.6-0.1,3.2-0.8,2.8-3.4c-0.9-7.2-1.8-14.3-2.9-21.5
	c-0.5-3.7-1.3-7.3-2-11.3c-229.9,0-459.5,0-689.1,0C517.1,366.8,516.3,367.1,515.1,367.3z M458.6,261.5c0.1-1.7,0.3-3.1,0.3-4.5
	c0-43.7,0-87.4,0-131.1c0-0.8,0.2-1.8-0.1-2.5c-0.3-0.7-1.2-1.7-1.9-1.8c-2.7-0.4-5.5-0.6-8.3-0.7c-6.4-0.4-12.7-0.8-19.1-1.2
	c-6.1-0.4-12.2-1-18.4-1c-11.6,0-23.1,0.3-34.7,0.6c-7.6,0.2-15.1,1.6-22.5,3.2c-6.5,1.4-11.2,5-14.8,10.6
	c-6.5,10.2-11.6,21.1-16.3,32.2c-7.9,18.6-14,37.9-20.4,57.1c-0.4,1.2-0.5,2.5-0.7,4c3.4,0.4,6.4,1,9.3,0.9c6.5-0.1,13,0.8,19.4,1.8
	c3.7,0.5,6.8,2,9.5,4.8c4.1,4.3,5.7,9.7,6.9,15.2c0.7,3,0.8,6.2,1.3,9.3c0.4,2.9,0.9,3.3,3.6,3.4c0.5,0,1,0,1.4,0
	c33.7,0,67.4,0,101.1,0C455.6,261.7,456.9,261.5,458.6,261.5z M505.8,402.7c0.8-2.9,0.9-32,0.1-35.7c-163.8,0-327.7,0-491.5,0
	c-2.5,5.5-6.7,26.9-7.1,35.7C173.6,402.7,339.7,402.7,505.8,402.7z M681.1,435.4c-1.7-0.1-2.8-0.2-3.8-0.2c-12.6,0-25.1,0-37.7,0
	c-0.6,0-1.2,0-1.8,0c-1.3,0-2,0.7-2.1,2c0,0.8,0,1.7,0,2.5c0,10.3,0,20.5,0,30.8c0,4.9,0,4.9-4.7,4.9c-9.8,0-19.6,0-29.3,0
	c-1,0-1.9,0-2.9,0c-1.3,0-2,0.7-2.1,2c0,0.6,0,1.2,0,1.8c0,12.8,0,25.6,0,38.4c0,0.6,0,1.2,0,1.8c0.1,1.1,0.7,1.8,1.9,1.8
	c1,0.1,1.9,0.1,2.9,0.1c9.9,0,19.8,0,29.7,0c1.3,0,2.6,0,4.2,0c0.1,1.7,0.3,3,0.3,4.3c0,10.4,0,20.8,0,31.2c0,1.4,0.2,2.8,0.2,4.1
	c3.6,0.9,41.8,0.8,45.1-0.1c0-4.2,0-8.5,0-12.8c0-4.5,0-8.9,0-13.4c0-4.3-0.2-8.6,0.2-13.3c4.6,0,8.8,0,13,0c4.1,0,8.2,0,12.3,0
	c4.2-0.1,8.4,0.2,12.6-0.2c0.1-1.4,0.3-2.3,0.3-3.3c0-12.9,0-25.8,0-38.8c0-0.6,0-1.2,0-1.8c-0.1-1.1-0.7-1.8-1.8-1.8
	c-1,0-1.9-0.1-2.9-0.1c-9.8,0-19.6,0-29.3,0c-1.3,0-2.6-0.1-4.3-0.2C681.1,461.8,681.1,448.8,681.1,435.4z M787.8,107.7
	c-80.8,0-161.6,0-242.4,0c-1.2,0-2.4-0.1-3.6,0.1c-2.8,0.3-3.9,1.6-3.8,4.3c0.1,2.7,1.3,4,3.9,4.2c1.2,0.1,2.4,0,3.6,0
	c160,0,320,0,480,0c0.8,0,1.7,0.1,2.5,0c1.8-0.2,2.9,0.7,3.6,2.3c1.2,2.8,2.6,5.5,3.7,8.3c4.7,11.9,9.5,23.7,13.9,35.6
	c3.1,8.7,5.8,17.6,8.2,26.6c2.8,10.4,5,20.9,6.1,31.6c0.6,5.6,1.1,11.2,1.4,16.9c0.1,2.3-0.3,4.6-0.6,6.8c-0.6,4.6-1.2,9.3-1.9,13.9
	c-0.4,2.5-1.4,4.9-1.8,7.4c-0.4,2.2,0.9,4,2.8,4.5c2.5,0.7,4.5-0.1,5.5-2.2c0.4-0.9,0.7-1.8,1-2.7c2.5-9.2,3.6-18.7,3.6-28.2
	c0-5.8-0.5-11.5-1.2-17.3c-2.2-18-6.5-35.6-12.2-52.7c-3.1-9.4-6.5-18.7-10.1-27.8c-3.8-9.4-8.1-18.5-12-27.8
	c-1.2-2.7-3-3.9-5.9-3.6c-0.6,0.1-1.2,0-1.8,0C949.4,107.7,868.6,107.7,787.8,107.7z M782.5,282.3c89,0,178,0,267,0
	c1,0,1.9,0.1,2.9,0c2.7-0.2,4-1.5,4-4.1c0.1-2.4-1.3-4.1-3.7-4.5c-0.8-0.1-1.7,0-2.5,0c-178.4,0-356.7,0-535.1,0
	c-0.8,0-1.7-0.1-2.5,0c-2.2,0.3-3.8,2.3-3.7,4.6c0.1,2.3,1.4,3.8,3.8,4c1,0.1,1.9,0,2.9,0C604.5,282.3,693.5,282.3,782.5,282.3z
	 M340,268c0.1-8.3-0.6-15.7-3.3-22.8c-1.5-4-3.8-7.2-8.6-7.7c-3.5-0.4-6.9-1.1-10.3-1.4c-5-0.4-10.1-0.8-15.1-0.7
	c-4.3,0-8.6,0.8-12.9,1.1c-5.5,0.3-10.4,2.1-14.7,5.3c-3.9,2.8-7.7,5.8-11.5,8.8c-6.6,5.3-11.9,11.6-15.4,19.3
	c-3.4,7.4-1.5,14,5.6,17.8c3.5,1.9,7.2,3.6,11,4.5c7.4,1.7,14.9,2.9,22.4,3.9c4.5,0.6,9.1,0.7,13.7,0.6c5.5-0.1,11-0.6,16.5-1.1
	c5.5-0.6,11-1.3,16.2-3.3c2.4-0.9,3.6-2.5,4.2-5C339.1,280.6,340.3,274,340,268z M1207.4,522.8c0.8-4.1,0.7-59.4-0.2-62.4
	c-1.2,0-2.5,0-3.8,0c-15.9,0-31.9,0-47.8,0c-0.8,0-1.7-0.1-2.5,0c-4.8,0.5-8.3,4.1-8.3,8.9c0,15,0,29.9,0,44.9
	c0,2.9,1.3,5.1,3.6,6.7c2.1,1.5,4.5,2.1,7.1,2.1c16.3,0,32.6,0,48.9,0C1205.4,523,1206.3,522.9,1207.4,522.8z M29.3,433.6
	c-0.9,6-0.5,38,0.4,40.4c0.5,0.1,1.1,0.2,1.7,0.2c23.4,0,46.8,0,70.2,0c3,0,3.6-0.5,3.6-3.6c0-7.1-0.8-14.2-3.5-20.9
	c-2-5.1-5.1-9.2-10.8-10.9c-1.5-0.4-2.9-1-4.5-1.4c-11.7-2.9-23.8-3.4-35.8-4c-5.9-0.3-11.8-0.1-17.7,0
	C31.8,433.4,30.6,433.5,29.3,433.6z M247.9,717.2c-65.6-0.3-116.8-52.9-118.5-115c-1.9-68.8,53.1-123.5,120.2-122.6
	c64.9,0.9,115.6,52.5,117.2,115.5C368.6,664,312.9,717.4,247.9,717.2z M248.2,670.1c38.3,0.8,70.3-31.7,71.7-68.5
	c1.6-42.2-32.1-74.2-69.9-75.2c-40.7-1.1-75.6,33.2-73.7,75.4C178,638.2,209.4,670.9,248.2,670.1z M990.3,720
	c-64.1,0.6-119.8-52.7-118.6-121c0.6-33.5,13.8-62,38.4-84.9c22.6-21.1,49.8-31.8,80.5-31.6c34.5,0.2,64.1,13.4,87.5,39
	c21.6,23.6,31.9,51.7,31,83.6C1107.4,668,1054.8,720.6,990.3,720z M1062.2,598.3c0.5-34.2-30-68.5-70.9-68.8
	c-40.6-0.4-71.3,32-72.6,69.2c-0.7,20.8,6.5,38.7,20.8,53.3c13.8,14.1,31.3,21.5,51,21.4c19.7,0,37.1-7.3,51-21.5
	C1055.2,637.9,1062.4,620.9,1062.2,598.3z M247.7,620.1c-12.3,0.5-21.6-10.9-21.5-21.6c0.1-12.1,9.6-22,22-22.1
	c12.2,0,21.8,10.3,21.9,22.2C270.2,609.1,260.7,621.1,247.7,620.1z M247.8,611.5c7.1,0.7,13.4-6.2,13.5-13
	c0.1-7.1-6.1-13.4-13.3-13.4c-7,0-13.2,6.2-13.2,13.1C234.9,605.4,240.8,611.4,247.8,611.5z M990.4,623.1
	c-11.2,0.5-21.9-8.9-21.9-22c0-10.5,8.3-21.6,21.9-21.7c12.9-0.1,22.2,11.1,21.9,22.5C1012.1,612.9,1002.6,623.6,990.4,623.1z
	 M1003.6,601.5c0.3-6.7-5-13.3-13.2-13.5c-7-0.1-13.2,6.2-13.3,13.2c-0.1,6,5.8,13.2,13.1,13.2
	C997.4,614.6,1004.3,607.2,1003.6,601.5z"/>
</svg>
