<?xml version="1.0" encoding="utf-8"?>
<!-- Generator: Adobe Illustrator 23.0.2, SVG Export Plug-In . SVG Version: 6.00 Build 0)  -->
<!DOCTYPE svg PUBLIC "-//W3C//DTD SVG 1.1//EN" "http://www.w3.org/Graphics/SVG/1.1/DTD/svg11.dtd" [
	<!ENTITY ns_extend "http://ns.adobe.com/Extensibility/1.0/">
	<!ENTITY ns_ai "http://ns.adobe.com/AdobeIllustrator/10.0/">
	<!ENTITY ns_graphs "http://ns.adobe.com/Graphs/1.0/">
	<!ENTITY ns_vars "http://ns.adobe.com/Variables/1.0/">
	<!ENTITY ns_imrep "http://ns.adobe.com/ImageReplacement/1.0/">
	<!ENTITY ns_sfw "http://ns.adobe.com/SaveForWeb/1.0/">
	<!ENTITY ns_custom "http://ns.adobe.com/GenericCustomNamespace/1.0/">
	<!ENTITY ns_adobe_xpath "http://ns.adobe.com/XPath/1.0/">
]>
<svg version="1.1" id="Layer_1" xmlns:x="&ns_extend;" xmlns:i="&ns_ai;" xmlns:graph="&ns_graphs;"
	 xmlns="http://www.w3.org/2000/svg" xmlns:xlink="http://www.w3.org/1999/xlink" x="0px" y="0px" viewBox="0 0 793.8 720"
	 style="enable-background:new 0 0 793.8 720;" xml:space="preserve">
<metadata>
	<sfw  xmlns="&ns_sfw;">
		<slices></slices>
		<sliceSourceBounds  bottomLeftOrigin="true" height="720" width="793.8" x="514.1" y="26.4"></sliceSourceBounds>
	</sfw>
</metadata>
<path d="M787,153.4L787,153.4c-22.3-86.7-92.3-141.6-188.7-152C589.9,0.4,581.8,0,573.8,0c-83.8,0-143.4,48.9-177.5,115.8
	C360.8,46,300,0.7,211.4,0.7c-5.9,0-11.9,0.2-18,0.6C105.3,7.2,29.6,59.8,5.8,162.6C-37.1,347.4,165.9,536.3,396.4,720
	C641.5,537.5,832.7,331.2,787,153.4z M665,421.7c-3.4,0-6.4-1.5-8.5-3.9l-0.3,0h-0.3l-70.3,0.6h-0.1c-2,0-3.9-0.9-5.2-2.5
	c-6.6-8.1-13.1-12.2-19.3-12.3h-0.3c-9.1,0-16.6,8.6-19.4,11.8c-1.5,1.8-3,3.4-5.8,3.7c-0.3,0-0.6,0-0.9,0l-27.1-1.1l-9.7,108.6
	c-0.3,3.5-3.2,6.2-6.7,6.2H491c-3.5,0-6.4-2.8-6.6-6.3l-13.5-222.5l-8.6,125.3c-0.2,3.3-2.8,5.9-6.1,6.3c-3.3,0.3-6.3-1.8-7.2-5
	l-3.6-13.4l-7.1-0.8c-2.6-0.3-4.8-2.1-5.6-4.5l-5.8-17l-7.6,18.8c-1,2.5-3.4,4.2-6.1,4.2l-42.5,0.7c-2.1,0.1-4.1-0.9-5.4-2.5
	c-6.8-8.6-13.8-12.9-20.8-12.7c-11.5,0.2-20.5,12.3-20.5,12.4c-1.2,1.7-3.2,2.7-5.3,2.8l-23.5,0.5l-10.4,107.7
	c-0.3,3.5-3.2,6.1-6.7,6.1H278c-3.5-0.1-6.4-2.8-6.6-6.3l-13.6-219.8l-7.2,123.2c-0.2,3.2-2.7,5.9-5.9,6.3c-3.2,0.4-6.3-1.5-7.3-4.6
	l-4-12.4h-7.4c-2.9,0-5.5-1.9-6.4-4.7l-5.4-17.1l-5.7,17.2c-0.9,2.8-3.5,4.6-6.4,4.6h-84.9c-3.7,0-6.8-3-6.8-6.8
	c0-3.7,3-6.8,6.8-6.8h80l10.8-32.4c0.9-2.8,3.5-4.7,6.5-4.6c2.9,0,5.5,1.9,6.4,4.7l10.2,32.3h7.5l12.3-212.1
	c0.2-3.6,3.2-6.3,6.7-6.3h0c3.6,0,6.5,2.8,6.7,6.3l15.3,246.9l2.8-28.7c0.3-3.4,3.1-6,6.6-6.1l26.3-0.6c4.4-5,14.9-14.9,28.9-15.3
	c10.6-0.2,20.5,4.8,29.5,15.2l34.8-0.6l12.7-31.5c1.1-2.6,3.6-4.3,6.4-4.2c2.8,0.1,5.3,1.9,6.2,4.6l10.3,30.2l6.3,0.8L464.5,199
	c0.2-3.5,3.2-6.3,6.7-6.3c0,0,0,0,0,0c3.6,0,6.5,2.8,6.7,6.3l14.4,236.8l2.3-25.4c0.3-3.6,3.4-6.3,7-6.1l30.5,1.2
	c4.3-4.8,14.6-15.4,28.7-15.4h0.5c9.6,0.2,18.8,5.1,27.4,14.8l66.3-0.6l0.3,0h0.3c2-3.1,5.5-5.2,9.5-5.2c6.2,0,11.3,5.1,11.3,11.3
	S671.2,421.7,665,421.7z"/>
</svg>
