<?xml version="1.0" encoding="utf-8"?>
<!-- Generator: Adobe Illustrator 23.0.2, SVG Export Plug-In . SVG Version: 6.00 Build 0)  -->
<!DOCTYPE svg PUBLIC "-//W3C//DTD SVG 1.1//EN" "http://www.w3.org/Graphics/SVG/1.1/DTD/svg11.dtd" [
	<!ENTITY ns_extend "http://ns.adobe.com/Extensibility/1.0/">
	<!ENTITY ns_ai "http://ns.adobe.com/AdobeIllustrator/10.0/">
	<!ENTITY ns_graphs "http://ns.adobe.com/Graphs/1.0/">
	<!ENTITY ns_vars "http://ns.adobe.com/Variables/1.0/">
	<!ENTITY ns_imrep "http://ns.adobe.com/ImageReplacement/1.0/">
	<!ENTITY ns_sfw "http://ns.adobe.com/SaveForWeb/1.0/">
	<!ENTITY ns_custom "http://ns.adobe.com/GenericCustomNamespace/1.0/">
	<!ENTITY ns_adobe_xpath "http://ns.adobe.com/XPath/1.0/">
]>
<svg version="1.1" id="Layer_1" xmlns:x="&ns_extend;" xmlns:i="&ns_ai;" xmlns:graph="&ns_graphs;"
	 xmlns="http://www.w3.org/2000/svg" xmlns:xlink="http://www.w3.org/1999/xlink" x="0px" y="0px" viewBox="0 0 793.8 720"
	 style="enable-background:new 0 0 793.8 720;" xml:space="preserve">
<metadata>
	<sfw  xmlns="&ns_sfw;">
		<slices></slices>
		<sliceSourceBounds  bottomLeftOrigin="true" height="720" width="793.8" x="520.1" y="31.8"></sliceSourceBounds>
	</sfw>
</metadata>
<g id="Red_Heart">
	<path d="M787,153.4C764.7,66.7,694.7,11.8,598.3,1.3C589.9,0.4,581.8,0,573.8,0c-83.8,0-143.4,48.9-177.4,115.8
		C360.8,46,300,0.7,211.4,0.7c-5.9,0-11.9,0.2-18,0.6C105.3,7.2,29.6,59.8,5.8,162.6C-37.1,347.4,165.9,536.2,396.4,720
		C641.4,537.5,832.6,331.2,787,153.4z M561.1,425.3c-32.7,0-65.4,0-98.1,0c0,33.2,0,66.3,0,99.5c0.1,7.9-0.1,15.8,0.1,23.7
		c-43.8,0-87.6,0-131.4,0c-0.1-15.9,0-31.8,0-47.6c0-25.2,0-50.4,0-75.6c-41.1,0-82.2,0-123.3,0c0-43.5,0-87,0-130.5
		c40.9,0,81.9,0,122.8,0c-0.1-41.1,0-82.3,0-123.4c43.6,0,87.3,0,130.9,0c0,41.1,0,82.3,0,123.4c41.1,0,82.3,0,123.4,0
		c0,43.5,0,87,0,130.4C577.4,425.4,569.2,425.3,561.1,425.3z"/>
</g>
</svg>
