<?xml version="1.0" encoding="utf-8"?>
<!-- Generator: Adobe Illustrator 23.0.2, SVG Export Plug-In . SVG Version: 6.00 Build 0)  -->
<!DOCTYPE svg PUBLIC "-//W3C//DTD SVG 1.1//EN" "http://www.w3.org/Graphics/SVG/1.1/DTD/svg11.dtd" [
	<!ENTITY ns_extend "http://ns.adobe.com/Extensibility/1.0/">
	<!ENTITY ns_ai "http://ns.adobe.com/AdobeIllustrator/10.0/">
	<!ENTITY ns_graphs "http://ns.adobe.com/Graphs/1.0/">
	<!ENTITY ns_vars "http://ns.adobe.com/Variables/1.0/">
	<!ENTITY ns_imrep "http://ns.adobe.com/ImageReplacement/1.0/">
	<!ENTITY ns_sfw "http://ns.adobe.com/SaveForWeb/1.0/">
	<!ENTITY ns_custom "http://ns.adobe.com/GenericCustomNamespace/1.0/">
	<!ENTITY ns_adobe_xpath "http://ns.adobe.com/XPath/1.0/">
]>
<svg version="1.1" id="Layer_1" xmlns:x="&ns_extend;" xmlns:i="&ns_ai;" xmlns:graph="&ns_graphs;"
	 xmlns="http://www.w3.org/2000/svg" xmlns:xlink="http://www.w3.org/1999/xlink" x="0px" y="0px" viewBox="0 0 861.2 720"
	 style="enable-background:new 0 0 861.2 720;" xml:space="preserve">
<metadata>
	<sfw  xmlns="&ns_sfw;">
		<slices></slices>
		<sliceSourceBounds  bottomLeftOrigin="true" height="720" width="861.2" x="-170.6" y="600"></sliceSourceBounds>
	</sfw>
</metadata>
<path d="M184.5,74.1c-59.6,45-30.8,153.8-30.8,153.8L0,227.9V720h861.2V227.9l-153.8,0c0,0,28.8-108.8-30.8-153.8
	C545.7-24.7,315.5-24.7,184.5,74.1L184.5,74.1z M246,135.6c97-75.7,272.1-75.7,369.1,0c33.3,26,30.8,92.3,30.8,92.3H215.3
	C215.3,227.9,212.7,161.6,246,135.6z M379.4,326.3h102.5v102.6h102.6v102.5H481.8v102.6H379.4V531.3H276.8V428.9h102.6V326.3z"/>
</svg>
