<?xml version="1.0" encoding="utf-8"?>
<!-- Generator: Adobe Illustrator 23.0.2, SVG Export Plug-In . SVG Version: 6.00 Build 0)  -->
<!DOCTYPE svg PUBLIC "-//W3C//DTD SVG 1.1//EN" "http://www.w3.org/Graphics/SVG/1.1/DTD/svg11.dtd" [
	<!ENTITY ns_extend "http://ns.adobe.com/Extensibility/1.0/">
	<!ENTITY ns_ai "http://ns.adobe.com/AdobeIllustrator/10.0/">
	<!ENTITY ns_graphs "http://ns.adobe.com/Graphs/1.0/">
	<!ENTITY ns_vars "http://ns.adobe.com/Variables/1.0/">
	<!ENTITY ns_imrep "http://ns.adobe.com/ImageReplacement/1.0/">
	<!ENTITY ns_sfw "http://ns.adobe.com/SaveForWeb/1.0/">
	<!ENTITY ns_custom "http://ns.adobe.com/GenericCustomNamespace/1.0/">
	<!ENTITY ns_adobe_xpath "http://ns.adobe.com/XPath/1.0/">
]>
<svg version="1.1" id="Layer_1" xmlns:x="&ns_extend;" xmlns:i="&ns_ai;" xmlns:graph="&ns_graphs;"
	 xmlns="http://www.w3.org/2000/svg" xmlns:xlink="http://www.w3.org/1999/xlink" x="0px" y="0px" viewBox="0 0 577.4 720"
	 style="enable-background:new 0 0 577.4 720;" xml:space="preserve">
<metadata>Created by potrace 1.15, written by Peter Selinger 2001-2017<sfw  xmlns="&ns_sfw;">
	<slices></slices>
	<sliceSourceBounds  bottomLeftOrigin="true" height="720" width="577.4" x="224.3" y="0.5"></sliceSourceBounds>
</sfw>
</metadata>
<g transform="translate(0.000000,1280.000000) scale(0.100000,-0.100000)">
	<path d="M2820.6,12791.5c-73.7-19.7-143.5-73.2-176.7-135.1c-81.6-151.9-3.9-345.5,160.4-397.3c47.3-15.2,118.2-15.2,165.5,0
		c113.1,36,193,144.6,193,262.8c0,78.8-25.9,141.3-81.6,197C3013,12787,2910,12815.7,2820.6,12791.5z"/>
	<path d="M1862.7,12775.2c-111.4-13.5-191.3-37.7-274.1-81.6c-127.2-68.1-249.9-149.1-558.8-370.9
		c-409.7-293.2-607.8-413.6-883.5-536.9c-121.6-54-146.3-67.5-146.3-78.8c0-18,27-46.7,59.7-63.6c50.6-25.9,114.2-33.8,204.8-25.3
		c118.7,11.8,172.2,27,293.2,83.9c169.4,79.3,468.8,262.2,652.2,397.9c69.2,51.2,179.5,159.8,212.7,208.8
		c28.7,43.3,38.8,53.5,48.4,49.5c6.2-2.3,7.9-19.1,7.9-74.3c0.6-110.3,23.1-197,73.2-279.1c29.8-49.5,108.1-126.1,155.3-152.5
		c82.7-46.1,143.5-60.2,255.5-59.7c73.7,0,74.3,0,74.3-12.9c0-6.8-7.3-19.7-16.9-28.7c-32.6-31.5-36-79.3-9-140.1
		c61.9-140.1,231.9-260.6,393.4-279.7c82.2-9.6,193,9,262.8,43.9l31,15.8l-1.7,84.4c-3.4,203.2-8.4,346.7-12.4,348.9
		c-2.3,1.7-24.2-2.3-48.4-8.4c-136.8-34.9-252.1-11.3-324.7,67.5c-36.6,39.4-58.5,82.7-64.7,127.7c-7.3,55.7-2.8,65.8,60.2,126.6
		c100.2,96.8,135.1,158.7,140.1,246.5c1.7,33.8-0.6,59.1-6.8,84.4c-18.6,72-69.8,162.6-119.3,209.9
		C2233.6,12762.3,2058.6,12799.4,1862.7,12775.2z"/>
	<path d="M3694.5,12777.5c-57.4-7.3-135.1-31-178.4-54c-64.7-34.9-113.1-91.2-154.2-177.8c-28.1-60.2-37.7-104.7-34.9-161.5
		c5.1-87.8,40-149.7,140.1-246.5c63-60.8,67.5-70.9,60.2-126.6c-6.2-45-28.1-88.4-64.7-127.7c-72.6-78.8-188-102.4-324.7-67.5
		c-24.2,6.2-46.1,10.1-48.4,8.4c-3.9-2.3-9-145.8-12.4-348.9l-1.7-84.4l31-15.8c69.8-34.9,180.6-53.5,262.8-43.9
		c161.5,19.1,331.5,139.6,393.4,279.7c27,60.8,23.6,108.6-9,140.1c-9.6,9-16.9,21.9-16.9,28.7c0,12.9,0.6,12.9,74.8,12.9
		c111.4-0.6,172.2,13.5,254.9,59.7c47.3,26.5,125.5,103,155.3,152.5c50.1,82.2,72.6,168.8,73.2,279.1c0,95.7,6.8,98.5,56.3,24.8
		c33.2-49,143.5-157.6,212.7-208.8c183.5-135.6,482.8-318.5,652.2-397.9c121-56.8,174.5-72,293.2-83.9
		c90.6-8.4,154.2-0.6,204.8,25.3c32.6,16.9,59.7,45.6,59.7,63.6c0,11.3-24.8,24.8-146.3,78.8c-275.8,123.2-473.8,243.7-883.5,536.9
		c-247.6,177.8-318.5,226.2-423.2,290.9c-101.9,63.6-177.8,104.1-221.7,119.3C3981.5,12774.1,3815,12792.1,3694.5,12777.5z"/>
	<path d="M2705.2,12200.1c-1.7-2.8-0.6-91.7,2.3-198.7c2.3-106.9,7.3-302.8,10.7-436.1c3.4-132.8,8.4-339.3,11.3-458.7
		s7.9-335.4,11.3-481.2c3.4-145.2,6.2-278,7.3-294.3c0.6-18.6-1.1-29.3-5.1-29.3c-13.5,0-142.4,42.2-201.5,65.8
		c-153.1,61.3-251.6,132.8-313.5,226.2c-41.6,63-56.8,115.4-60.2,210.5c-2.8,95.7-0.6,100.7,37.1,65.3
		c14.6-14.1,33.2-29.8,41.1-34.9c56.3-34.3,156.4-42.8,220-18.6c96.2,36.6,175.6,105.8,182.9,159.8c2.3,18.6,0.6,24.8-15.2,42.2
		c-39.4,45-115.4,68.1-225.1,68.1c-153.6,0-249.3-35.5-342.2-127.2c-83.3-82.2-125.5-180.1-125.5-291.5
		c0.6-128.3,57.4-248.7,171.1-363c80.5-80.5,160.4-138.4,289.8-211l46.7-26.5l-49.5-36c-60.2-43.9-141.8-123.8-177.8-175.6
		c-124.9-176.1-144.1-378.2-56.8-585.3c58.5-138.4,160.9-251,342.2-374.8l49-33.2l-45-31.5c-170.5-119.3-262.2-236.4-297.1-378.7
		c-12.9-54.6-12.9-164.9,0.6-229.6c38.8-186.8,139-353.4,290.4-484l50.6-43.9l-29.8-31.5c-97.4-103-144.6-215-144.6-343.8
		c0-180.1,70.9-289.8,301.6-465.4l16.3-12.4l-46.1-42.8c-112-103.5-159.3-197.5-159.3-315.7c0-86.1,25.3-163.8,78.2-240.3
		c36.6-52.9,60.8-76.5,65.3-64.7c2.3,5.1-2.8,47.3-10.7,94.5c-16.9,97.9-18,141.8-6.2,187.4c12.9,50.6,33.8,85.5,78.8,132.8
		c40,41.6,129.4,112,135.6,105.8c2.8-2.8,8.4-187.4,19.1-670.8c3.9-154.8,8.4-314,10.1-354.5l3.9-73.2h19.7h19.7l3.9,67.5
		c1.7,37.1,6.2,195.3,10.1,351.7c10.7,472.2,16.3,676.4,19.1,679.3c6.8,6.8,76.5-47.3,131.7-101.3c31.5-31,46.7-51.8,64.7-87.8
		l23.6-47.3v-68.1c0-47.8-3.9-88.9-13.5-137.3c-7.3-37.7-11.3-72.6-9.6-78.2c3.4-7.9,6.2-6.8,20.3,6.8c24.2,23.6,71.5,92.9,87.8,130
		c28.7,65.3,37.7,111.4,34.9,182.3c-5.1,118.2-47.8,199.8-155.9,297.7c-25.3,22.5-45.6,42.8-45.6,45c0,2.8,21.9,21.4,49.5,41.6
		c190.2,143.5,265.6,266.7,266.2,437.3c0,127.2-47.8,240.9-145.2,343.8l-29.8,31.5l55.7,48.4c148,129.4,243.1,287.6,285.9,477.2
		c14.6,63,12.9,185.7-3.4,244.2c-36.6,136.2-123.8,245.9-285.3,360.2l-52.9,37.7l48.4,33.2c93.4,64.2,189.1,145.8,236.4,202
		c68.1,81.6,124.9,196.4,146.9,298.3c14.6,69.2,13.5,200.3-2.8,260c-38.8,143.5-135.6,276.9-272.9,375.4l-49.5,36l61.3,34.3
		c299.4,170,446.8,359,446.3,571.2c-0.6,189.7-145.2,361.3-338.8,403.5c-60.2,12.9-193.6,12.9-241.4,0.6
		c-51.2-13.5-91.7-34.9-112.6-58.5c-15.2-17.4-17.4-23.6-15.2-41.6c7.3-54,90.6-126.6,185.7-162.1c44.5-16.3,119.9-16.3,167.7-0.6
		c42.8,14.6,56.8,23.6,90.6,55.2c14.1,13.5,28.7,23.1,32.1,21.4c11.3-7.3,7.9-130.6-5.1-181.2c-30.4-121-112.6-215-253.2-290.9
		c-72.6-38.8-212.7-92.3-309-117.1c-5.6-1.7-7.3,9-6.8,54c1.1,69.2,28.7,1213.9,40,1642.7c2.8,108.6,3.9,199.2,2.3,201.5
		C3065.9,12205.1,2708.6,12205.7,2705.2,12200.1z M2768.2,9498.8c3.4-176.1,7.9-333.2,9-350c2.8-25.9,1.7-29.3-6.2-26.4
		c-27,10.1-79.3,51.2-128.9,101.3c-85.5,86.1-121,162.6-121,259.4c0,86.7,28.7,153.6,97.9,226.2c35.5,37.7,124.4,106.9,139,108
		C2759.8,9817.9,2764.3,9674.4,2768.2,9498.8z M3063.7,9787.5c79.3-52.9,146.3-130,172.8-198.7c16.9-45,20.8-131.7,8.4-181.2
		c-19.1-75.4-66.4-147.4-137.9-210.5c-36-32.1-99.6-77.1-108.6-77.1c-2.8,0-3.4,9.6-1.7,21.4c1.1,11.3,5.6,168.3,9,348.9
		c3.9,180.1,7.9,327.5,9.6,327.5S3038.3,9804.4,3063.7,9787.5z M2801.4,8183.1c2.8-108.1,3.9-198.1,3.4-199.2
		c-2.8-3.9-72.6,49-97.4,73.2c-63.6,64.2-101.9,150.8-101.9,233c0,94,37.7,162.6,136.2,248.7l46.7,40.5l3.9-99.6
		C2794.7,8425.1,2798.6,8291.7,2801.4,8183.1z M3080,8493.2c27-27.6,45-53.5,61.3-86.1c20.8-41.6,23.6-52.9,25.9-95.7
		c5.1-94-31-184-100.7-254.4c-24.2-24.2-94.5-77.1-96.8-73.2c-1.1,1.1,1.7,117.6,5.1,258.3c3.9,140.7,7.3,274.6,7.3,297.1l0.6,41.6
		l29.8-24.2C3028.2,8543.2,3059.2,8514.5,3080,8493.2z M2823.9,7241.6c2.3-81,2.8-147.4,1.1-147.4c-7.9,0.6-65.3,81-80.5,112.6
		c-14.1,30.4-17.4,43.9-17.4,78.8c-0.6,52.9,14.6,85.5,58.5,129.4l31,31l1.7-28.1C2818.9,7402.5,2821.7,7323.2,2823.9,7241.6z
		 M2999,7405.9c36.6-41.6,48.4-71.5,48.4-120.4c0-56.8-16.9-93.4-78.8-170.5c-9-11.3-18-20.8-19.7-20.8c-1.7,0-1.1,52.3,0.6,116.5
		c2.3,64.7,3.9,142.9,4.5,175c0.6,55.2,1.1,57.4,11.3,52.3C2970.8,7434.6,2986,7420.5,2999,7405.9z"/>
	<path d="M1369.2,12166.3c-9.6-5.6-50.1-38.3-90-73.2c-281.4-245.4-508.2-400.1-727.1-496.4c-75.4-33.8-88.4-46.1-73.2-72.6
		c12.4-23.1,41.6-34.3,108.1-41.1c140.7-14.1,238.6,16.3,437.3,133.9c185.1,110.3,430.5,295.4,452.5,342.2
		c9.6,19.7,9.6,20.3-12.4,69.2c-19.7,42.8-29.3,70.9-46.1,130.6C1413.7,12177,1393.4,12179.8,1369.2,12166.3z"/>
	<path d="M4355.8,12161.2c-3.4-7.9-5.6-17.4-5.6-21.4c0-11.8-20.3-67.5-42.2-115.9c-20.3-44.5-20.3-45-10.7-64.7
		c21.9-46.7,267.3-231.9,452.5-342.2c198.7-117.6,296.6-148,437.3-133.9c66.4,6.8,95.7,18,108.1,41.1c15.2,26.5,2.3,38.8-73.2,72.6
		c-225.1,99-445.1,251-761.4,525.1C4394.6,12179.2,4366.5,12189.9,4355.8,12161.2z"/>
	<path d="M1496.9,11907.4c-4.5-2.3-46.1-40-92.9-85c-162.1-157-275.8-242.5-466-352.3l-66.4-38.8l1.7-19.7
		c1.7-18.6,3.9-20.8,27-28.1c34.9-10.7,145.8-11.8,191.3-1.7c86.1,18.6,181.8,68.1,293.8,150.8c84.4,62.5,266.2,215,275.2,230.7
		c10.7,20.3-0.6,36-42.2,60.8c-20.8,11.8-51.2,36.6-68.1,54.6C1520.6,11910.8,1514.4,11913.6,1496.9,11907.4z"/>
	<path d="M4224.1,11879.3c-17.4-18.6-47.8-43.3-68.7-55.2c-41.6-24.8-52.9-40.5-42.2-60.8c9-15.8,190.8-168.3,275.2-230.7
		c112-82.7,207.7-132.2,293.8-150.8c45.6-10.1,156.4-9,191.3,1.7c23.1,7.3,25.3,9.6,27,28.1l1.7,19.7l-66.4,38.8
		c-191.9,110.9-304.5,195.8-466.5,352.9c-46.7,45.6-91.2,83.9-99.6,85.5C4257.3,11911.9,4251.1,11908,4224.1,11879.3z"/>
	<path d="M1711.4,11757.2c-7.3-3.9-20.8-17.4-29.8-29.3c-55.7-74.3-164.3-183.5-298.8-300c-67-58-74.8-68.1-65.8-85
		c14.1-27,72-38.8,133.4-28.1c162.1,28.1,463.2,283.6,463.2,393.9c0,9-1.7,17.4-3.9,18.6c-2.8,1.7-29.8,5.6-60.8,9.6
		c-30.4,3.4-70.9,11.3-90,17.4c-18.6,5.6-33.8,10.7-33.8,10.7C1724.9,11764.5,1718.7,11761.1,1711.4,11757.2z"/>
	<path d="M4011.9,11753.8c-17.4-5.6-56.8-13.5-87.2-16.9c-30.4-3.9-57.4-7.9-59.7-9.6c-2.8-1.1-4.5-9.6-4.5-18.6
		c0-110.3,301.1-365.8,463.2-393.9c61.3-10.7,119.3,1.1,133.4,28.1c9,16.9,1.1,27-65.8,85c-135.6,117.1-245.9,228.5-300,301.1
		c-12.9,18-40.5,38.8-46.7,35.5C4044,11763.9,4029.4,11759.4,4011.9,11753.8z"/>
</g>
</svg>
