<?xml version="1.0" encoding="utf-8"?>
<!-- Generator: Adobe Illustrator 23.0.2, SVG Export Plug-In . SVG Version: 6.00 Build 0)  -->
<!DOCTYPE svg PUBLIC "-//W3C//DTD SVG 1.1//EN" "http://www.w3.org/Graphics/SVG/1.1/DTD/svg11.dtd" [
	<!ENTITY ns_extend "http://ns.adobe.com/Extensibility/1.0/">
	<!ENTITY ns_ai "http://ns.adobe.com/AdobeIllustrator/10.0/">
	<!ENTITY ns_graphs "http://ns.adobe.com/Graphs/1.0/">
	<!ENTITY ns_vars "http://ns.adobe.com/Variables/1.0/">
	<!ENTITY ns_imrep "http://ns.adobe.com/ImageReplacement/1.0/">
	<!ENTITY ns_sfw "http://ns.adobe.com/SaveForWeb/1.0/">
	<!ENTITY ns_custom "http://ns.adobe.com/GenericCustomNamespace/1.0/">
	<!ENTITY ns_adobe_xpath "http://ns.adobe.com/XPath/1.0/">
]>
<svg version="1.1" id="Layer_1" xmlns:x="&ns_extend;" xmlns:i="&ns_ai;" xmlns:graph="&ns_graphs;"
	 xmlns="http://www.w3.org/2000/svg" xmlns:xlink="http://www.w3.org/1999/xlink" x="0px" y="0px" viewBox="0 0 734.6 720"
	 style="enable-background:new 0 0 734.6 720;" xml:space="preserve">
<metadata>
	<sfw  xmlns="&ns_sfw;">
		<slices></slices>
		<sliceSourceBounds  bottomLeftOrigin="true" height="720" width="734.6" x="-157" y="0"></sliceSourceBounds>
	</sfw>
</metadata>
<g transform="translate(-240.6 -63.481)">
	<g transform="matrix(1.218 1.218 -1.218 1.218 246.98 -581.92)">
		<g>
			<path d="M645.9,50.7h-164c-3.6,0-6.5,2.9-6.5,6.5c0,3.6,2.9,6.5,6.5,6.5l46.5,0l0,91.1h-64.1c-4,0-7.2,3.2-7.2,7.2
				c0,4,3.2,7.2,7.2,7.2l49.4,0l-1.5,255.1l45.7,34.9l0,103.9l12-17.5v-87.5l44.2-32.4l1.5-256.5h48c2,0,3.8-0.8,5.1-2.1
				c1.3-1.3,2.1-3.1,2.1-5.1c0-4-3.2-7.2-7.2-7.2h-64.1l0-91.1l46.5,0c1.8,0,3.4-0.7,4.6-1.9c1.2-1.2,1.9-2.8,1.9-4.6
				C652.4,53.6,649.5,50.7,645.9,50.7z M605.4,421.4l-42.2,31L520.9,420l0.3-56.4l31.7,0c1,0,1.9-0.4,2.5-1.1
				c0.6-0.6,1.1-1.5,1.1-2.5c0-2-1.6-3.6-3.6-3.6h-31.6l0.1-23.8h31.5c1,0,1.9-0.4,2.5-1.1c0.7-0.7,1.1-1.5,1.1-2.5
				c0-2-1.6-3.6-3.6-3.6l-31.4,0l0.1-23.7l31.3,0c1,0,1.9-0.4,2.5-1c0.7-0.7,1-1.5,1.1-2.5c0-2-1.6-3.6-3.6-3.6l-31.3,0l0.1-23.8
				h31.1c1,0,1.9-0.4,2.5-1c0.7-0.7,1.1-1.6,1.1-2.5c0-2-1.6-3.6-3.6-3.6h-31.1l0.1-23.8l30.9,0c1,0,1.9-0.4,2.5-1.1
				c0.6-0.6,1.1-1.5,1.1-2.5c0-2-1.6-3.6-3.6-3.6l-30.9,0l0.1-23.7l30.8,0c1,0,1.9-0.4,2.5-1.1c0.7-0.7,1.1-1.5,1.1-2.5
				c0-2-1.6-3.6-3.6-3.6l-30.7,0l0.2-31.7l7.9,0.1c0.8,0,1.6,0,2.3,0c15.3,0.2,30.5,0.5,45.8,0.7c9.5,0.1,19,0.3,28.5,0.4
				L605.4,421.4z M590.9,154.8h-54.1l0-91.1h54.1L590.9,154.8z"/>
		</g>
	</g>
</g>
</svg>
