<?xml version="1.0" encoding="utf-8"?>
<!-- Generator: Adobe Illustrator 23.0.2, SVG Export Plug-In . SVG Version: 6.00 Build 0)  -->
<!DOCTYPE svg PUBLIC "-//W3C//DTD SVG 1.1//EN" "http://www.w3.org/Graphics/SVG/1.1/DTD/svg11.dtd" [
	<!ENTITY ns_extend "http://ns.adobe.com/Extensibility/1.0/">
	<!ENTITY ns_ai "http://ns.adobe.com/AdobeIllustrator/10.0/">
	<!ENTITY ns_graphs "http://ns.adobe.com/Graphs/1.0/">
	<!ENTITY ns_vars "http://ns.adobe.com/Variables/1.0/">
	<!ENTITY ns_imrep "http://ns.adobe.com/ImageReplacement/1.0/">
	<!ENTITY ns_sfw "http://ns.adobe.com/SaveForWeb/1.0/">
	<!ENTITY ns_custom "http://ns.adobe.com/GenericCustomNamespace/1.0/">
	<!ENTITY ns_adobe_xpath "http://ns.adobe.com/XPath/1.0/">
]>
<svg version="1.1" id="Layer_1" xmlns:x="&ns_extend;" xmlns:i="&ns_ai;" xmlns:graph="&ns_graphs;"
	 xmlns="http://www.w3.org/2000/svg" xmlns:xlink="http://www.w3.org/1999/xlink" x="0px" y="0px" viewBox="0 0 498.3 720"
	 style="enable-background:new 0 0 498.3 720;" xml:space="preserve">
<metadata>
	<sfw  xmlns="&ns_sfw;">
		<slices></slices>
		<sliceSourceBounds  bottomLeftOrigin="true" height="720" width="498.3" x="-181.2" y="1.9"></sliceSourceBounds>
	</sfw>
</metadata>
<path d="M457.9,187.8c-21.2-21.9-49.8-34.5-85.3-37.5v-16.9h12.8c10.7,0,19.3-8.7,19.3-19.3V19.3c0-10.6-8.6-19.3-19.3-19.3H119.9
	c-10.7,0-19.4,8.7-19.4,19.3V114c0,10.6,8.7,19.3,19.4,19.3h10V150c-33,2.8-61.7,15.3-83.8,36.8C15.6,216.9,0,261.8,0,320.5v272.9
	C0,663.2,49.3,720,109.9,720h278.6c60.5,0,109.7-56.8,109.7-126.6V320.8C500.1,262.1,486.5,217.4,457.9,187.8z M131.2,38.2h244.7V87
	H131.2V38.2z M388.5,685.3H109.9c-34.7,0-64-28.8-72.6-67.9h423.5C452.3,656.5,423,685.3,388.5,685.3z M462,582.3H39.1V334.4H462
	V582.3z M35.6,299.3c3-38.5,14.7-67.9,34.9-87.6c23-22.5,52.1-27.5,73.5-27.5h3c4.6,0.2,9.1-1.7,12.5-5c3.4-3.2,5.2-7.8,5.2-12.4
	l-0.1-33.5h173.2v33.5c0,4.6,1.8,9,5.1,12.3c3.2,3.3,7.6,5.1,12.3,5.1c33.8,0,60,9.3,77.7,27.6c22,22.8,29.2,57.3,30.5,87.5H35.6z"
	/>
</svg>
