<?xml version="1.0" encoding="utf-8"?>
<!-- Generator: Adobe Illustrator 23.0.2, SVG Export Plug-In . SVG Version: 6.00 Build 0)  -->
<!DOCTYPE svg PUBLIC "-//W3C//DTD SVG 1.1//EN" "http://www.w3.org/Graphics/SVG/1.1/DTD/svg11.dtd" [
	<!ENTITY ns_extend "http://ns.adobe.com/Extensibility/1.0/">
	<!ENTITY ns_ai "http://ns.adobe.com/AdobeIllustrator/10.0/">
	<!ENTITY ns_graphs "http://ns.adobe.com/Graphs/1.0/">
	<!ENTITY ns_vars "http://ns.adobe.com/Variables/1.0/">
	<!ENTITY ns_imrep "http://ns.adobe.com/ImageReplacement/1.0/">
	<!ENTITY ns_sfw "http://ns.adobe.com/SaveForWeb/1.0/">
	<!ENTITY ns_custom "http://ns.adobe.com/GenericCustomNamespace/1.0/">
	<!ENTITY ns_adobe_xpath "http://ns.adobe.com/XPath/1.0/">
]>
<svg version="1.1" id="Layer_1" xmlns:x="&ns_extend;" xmlns:i="&ns_ai;" xmlns:graph="&ns_graphs;"
	 xmlns="http://www.w3.org/2000/svg" xmlns:xlink="http://www.w3.org/1999/xlink" x="0px" y="0px" viewBox="0 0 739.4 720"
	 style="enable-background:new 0 0 739.4 720;" xml:space="preserve">
<metadata>Created by potrace 1.15, written by Peter Selinger 2001-2017<sfw  xmlns="&ns_sfw;">
	<slices></slices>
	<sliceSourceBounds  bottomLeftOrigin="true" height="720" width="739.4" x="270.3" y="0.5"></sliceSourceBounds>
</sfw>
</metadata>
<g transform="translate(0.000000,1247.000000) scale(0.100000,-0.100000)">
	<path d="M5520,12468.5c-266.4-26-458.2-79.7-669.1-184.9c-169.9-85.5-309.7-186.6-469.2-338c-78-74.5-1426-1363-2120.5-2027.5
		C824.3,8544.2,482.8,8216,448.2,8179.6c-184.9-197-326.5-455.9-394.6-721.7c-123.1-480.1-31.8-992.6,250.8-1405.2
		c113.8-167,291.8-348.4,455.3-465.7c236.9-169.3,491.7-268.1,799.7-309.7c72.2-9.8,320.7-9.8,392.9,0
		c224.8,30.6,405.6,84.9,591.1,178c169.9,85.5,309.7,186.6,469.2,338c78,74.5,1426,1363,2120.5,2027.5
		c1437,1374,1778.4,1702.2,1813.1,1738.6c184.9,197,326.5,455.9,394.6,721.7c123.1,480.1,31.8,992.6-250.8,1405.2
		c-113.8,167-291.8,348.4-455.3,465.7c-231.7,165.2-484.2,265.2-776.5,306.2C5800.2,12466.2,5568.5,12473.1,5520,12468.5z
		 M5739.6,11853.8c204.5-19.6,389.4-90.7,552.4-211.5c70.5-52.6,176.8-154.8,232.8-224.2c242.7-299.3,318.9-694.5,202.8-1047.5
		c-42.8-130.6-101.1-236.9-188.4-345.5c-21.4-26.6-366.3-360.5-825.7-800.2c-433.3-414.9-955.1-913.5-1158.5-1107.6L4185.3,7763
		l-171,172.2c-505,507.9-1426.6,1442.7-1425.4,1445.6c1.2,2.3,275,264.6,608.4,583.6c334,319.5,838.4,801.4,1120.9,1071.8
		c283.1,270.4,531,507.3,551.8,525.8c189.5,169.9,421.8,268.7,687.6,294.1C5603.8,11860.1,5680.1,11859,5739.6,11853.8z"/>
	<path d="M4699.5,10733.4c-9.2-5.8-45.1-39.3-79.2-74c-59.5-60.7-62.4-64.7-62.4-87.8c0-13.3,3.5-31.2,8.1-39.9
		c4.6-8.7,77.4-84.4,161.8-168.7l153.7-153.1l-152.5-153.1c-83.8-84.4-156.6-159.5-161.8-167.6c-5.2-7.5-9.2-26-9.2-39.9
		c0-25.4,1.2-27.2,74-100c71.6-71.6,74.5-74,98.2-74c13.9,0,31.8,3.5,40.4,8.1c8.7,4.6,84.4,77.4,168.7,161.8l153.1,153.7
		l153.1-152.5c84.4-83.8,159.5-156.6,167.6-161.8c7.5-5.2,26-9.2,39.9-9.2c25.4,0,27.2,1.2,100,74l74,74v28.3v28.3l-162.9,163.5
		l-163.5,163.5l157.2,157.7c86.1,86.1,159.5,162.9,162.9,169.9c8.7,17.3,8.1,45.6-1.7,64.1c-9.2,16.8-112.7,120.8-136.4,136.4
		c-17.9,12.1-51.4,12.1-69.3,0c-8.1-5.2-83.8-78.6-169.3-163.5l-154.3-153.7l-157.7,157.2c-86.1,86.1-162.9,159.5-169.9,162.9
		C4743.5,10747.3,4719.2,10745.6,4699.5,10733.4z"/>
</g>
</svg>
