<?xml version="1.0" encoding="utf-8"?>
<!-- Generator: Adobe Illustrator 23.0.2, SVG Export Plug-In . SVG Version: 6.00 Build 0)  -->
<!DOCTYPE svg PUBLIC "-//W3C//DTD SVG 1.1//EN" "http://www.w3.org/Graphics/SVG/1.1/DTD/svg11.dtd" [
	<!ENTITY ns_extend "http://ns.adobe.com/Extensibility/1.0/">
	<!ENTITY ns_ai "http://ns.adobe.com/AdobeIllustrator/10.0/">
	<!ENTITY ns_graphs "http://ns.adobe.com/Graphs/1.0/">
	<!ENTITY ns_vars "http://ns.adobe.com/Variables/1.0/">
	<!ENTITY ns_imrep "http://ns.adobe.com/ImageReplacement/1.0/">
	<!ENTITY ns_sfw "http://ns.adobe.com/SaveForWeb/1.0/">
	<!ENTITY ns_custom "http://ns.adobe.com/GenericCustomNamespace/1.0/">
	<!ENTITY ns_adobe_xpath "http://ns.adobe.com/XPath/1.0/">
]>
<svg version="1.1" id="Layer_1" xmlns:x="&ns_extend;" xmlns:i="&ns_ai;" xmlns:graph="&ns_graphs;"
	 xmlns="http://www.w3.org/2000/svg" xmlns:xlink="http://www.w3.org/1999/xlink" x="0px" y="0px" viewBox="0 0 501.1 720"
	 style="enable-background:new 0 0 501.1 720;" xml:space="preserve">
<metadata>Created by potrace 1.15, written by Peter Selinger 2001-2017<sfw  xmlns="&ns_sfw;">
	<slices></slices>
	<sliceSourceBounds  bottomLeftOrigin="true" height="720" width="501.1" x="195" y="0.1"></sliceSourceBounds>
</sfw>
</metadata>
<g transform="translate(0.000000,1280.000000) scale(0.100000,-0.100000)">
	<path d="M2840.2,12798.9c-34.3-3.4-249.3-39.4-312.3-51.8c-49.5-10.1-51.2-10.1-73.7,0.6l-23.1,10.7l-58.5-14.6
		c-78.8-19.7-178.9-58-254.9-97.9c-92.3-48.4-112.5-79.9-112-175.6c0.6-48.4,12.4-106.4,28.1-137.9c15.2-30.4,47.3-64.7,70.3-76.5
		c19.1-9.6,31-11.3,65.8-9.6c37.7,1.7,50.1,5.1,98.5,28.7c70.9,34.3,164.9,90.6,221.2,132.8c45.6,33.8,86.7,73.7,77.1,73.7
		c-6.2,0-3.9,73.2,2.8,79.9c4.5,5.1,193.6,40.5,296.6,55.7c46.1,6.8,112,12.4,146.3,12.9l62.5,0.6l38.8-25.9
		c168.3-112.5,380.4-386.6,568.9-733.8c108-199.2,211-422.6,316.3-687.7l29.3-73.7l-5.1-43.3c-4.5-42.8-4.5-43.9,19.7-109.2
		c27.6-72,45-140.1,64.2-251c10.7-61.3,12.9-94,12.9-199.8c0-135.6-5.6-181.8-33.2-278c-68.7-238-243.1-411.4-501.4-500.3
		c-368.6-127.2-825.5-23.6-1319,298.8c-103.5,67-244.2,172.8-270.7,202.6c-11.3,12.9-32.6,28.7-47.3,36
		c-21.4,10.7-41.6,32.1-109.2,114.2c-498.6,608.3-779.9,1105.2-764.2,1350.6c3.4,51.8,11.8,80.5,38.3,124.4
		c60.8,100.2,160.9,184,280.2,233.5c58,24.2,63,23.6,85.5-6.2c10.7-14.1,29.8-31,42.8-37.1c22.5-11.3,25.9-11.8,70.9-4.5
		c97.9,15.8,228.5,54.6,313.4,92.8c57.4,25.3,61.3,32.6,61.3,100.7c0.6,159.8-47.3,254.4-145.7,287c-23.1,7.3-26.4,6.8-86.7-13.5
		c-130.6-43.9-303.3-133.9-324.7-168.3c-5.6-10.1-10.7-27.6-10.7-38.8v-20.8l-71.5-37.1c-97.4-50.1-167.1-100.7-238.6-171.6
		c-65.3-64.7-108-123.8-140.1-193.6c-27-58.5-33.8-87.8-33.8-145.2c0-133.9,59.1-315.1,182.9-558.8
		c231.3-457.5,645.5-1017.4,1180.6-1597.6c76.5-82.7,75.4-80.5,59.6-119.9c-7.3-17.4-6.8-18,32.1-61.9
		c222.3-250.4,538-509.3,788.4-646c158.7-86.7,318.5-142.9,467.1-165.4c86.1-12.9,256-5.6,316.8,13.5c7.9,2.8,33.2-40,136.7-234.7
		c277.4-521.6,451.9-859.3,501.4-970.7c129.4-292.1,144.1-613.4,42.2-921.8c-36-109.7-111.4-262.2-152.5-310.1
		c-96.8-112.5-241.4-190.2-425.4-228.5c-86.7-18.6-252.7-18-338.2,0.6c-191.3,41.1-324.1,126.6-684.3,439.5
		c-58.5,51.2-138.4,118.2-177.3,149.1c-268.4,215-510.4,339.3-745.6,383.8c-79.3,15.2-251.5,13.5-329.2-3.4
		c-123.2-25.9-198.6-54-392.8-146.3c-198.6-94-266.7-115.4-366.9-115.4c-123.2,0-225.1,51.8-349.5,176.1
		c-154.8,155.3-258.9,382.1-301.1,654.5c-11.3,74.8-12.9,207.6-2.8,269c20.3,126.1,83.8,375.3,153.1,600.4
		c43.3,140.7,43.9,142.9,18.6,162.1c-11.8,9-19.1,19.1-18,24.2c1.7,8.4,9,9.6,52.3,7.9c159.3-6.2,332,65.3,441.2,181.8
		c64.2,68.7,116.5,162.6,141.8,253.2c15.2,56.8,21.4,188,10.7,247.6c-20.8,117.6-78.2,226.8-162.6,312.9
		C820,9705,544.2,9750,322,9638.6c-82.7-41.6-175-123.2-224-197.5c-154.2-233.5-123.8-540.8,72.6-737.7
		c43.3-42.8,96.8-82.7,139-102.4c11.3-5.6,20.8-11.8,20.8-14.1s-17.4-6.2-39.4-8.4c-21.4-1.7-39.4-6.2-39.4-9.6
		c0-2.8-15.2-52.3-33.2-110.3C138,8207,78.3,7973.5,48.5,7796.2c-43.3-260.5,23.6-619,167.7-897C377.1,6588,636,6373,897.6,6333.7
		c70.9-10.7,117-10.7,190.8,0c114.8,16.3,207.6,46.1,426.5,137.9c265.6,110.9,320.2,126.6,444.6,126.1
		c115.4,0,207.6-21.4,320.8-74.8c154.2-73.2,282.5-166,570.6-414.2c319.6-274.6,454.7-369.7,619.6-435
		c290.4-114.8,652.8-94,945.4,53.5c98.5,49.5,170.5,100.2,239.2,167.7c84.4,83.3,137.3,163.8,207.6,316.8
		c195.8,428.8,198.1,818.8,7.3,1289.8c-69.2,172.2-122.1,275.7-446.8,885.2C4323,8575,4239.7,8732,4238,8736
		c-1.7,3.9,17.4,28.1,41.6,53.5c133.4,137.3,229.6,338.8,276.3,580.2c27.6,142.9,36,247,36,424.9c-0.6,188.5-12.9,334.3-47.3,537.4
		c-23.1,140.1-19.1,131.1-57.4,137.3c-29.3,4.5-32.1,6.2-35.5,22.5c-2.3,9.6-27.6,87.8-56.3,175c-29.3,86.7-52.9,158.1-52.9,159.3
		c0,0.6,3.9,1.1,9,1.1c6.2,0,7.9,3.4,5.1,12.9c-3.9,11.8-116.5,323.6-123.8,342.7c-2.3,5.1-10.7,11.8-18.6,14.6
		c-11.8,3.9-18,13.5-28.7,41.1c-30.4,81-112.5,264.5-180.6,401.8c-155.9,316.3-330.3,588.6-511.5,799.1
		c-87.2,101.3-258.9,277.4-292.1,299.4c-38.8,25.3-92.3,43.9-149.1,51.8C3001.7,12797.7,2877.3,12802.2,2840.2,12798.9z
		 M4241.4,10487.2l18.6-61.3l-13.5-10.1c-7.3-5.6-15.2-10.7-16.9-10.7c-1.7,0-5.1,31.5-7.3,70.3c-1.7,38.3-5.1,74.3-6.8,79.9
		c-2.3,7.9-2.3,8.4,2.3,1.7C4220.6,10552.4,4231.2,10520.9,4241.4,10487.2z M4252.6,10160.2c43.9-349.5,29.8-657.8-40-871.1
		c-60.8-185.7-173.3-323.6-308.4-378.2c-244.2-99.6-612.8,57.4-1047.2,446.8c-68.7,61.3-221.2,211-242.5,238l-16.9,20.8l41.6-18.6
		c357.9-163.2,676.4-202,945.4-115.4c74.3,23.6,200.9,88.3,260,132.8c106.4,79.3,202,191.9,263.9,311.2
		c61.9,119.9,92.9,221.7,113.7,379.8c3.9,27.6,4.5,26.4,14.1-36.6C4241.9,10234.5,4249.3,10185,4252.6,10160.2z M2499.7,9665
		c44.5-23.1,46.7-25.3,32.6-28.7c-8.4-1.7-18.6-3.9-21.9-5.1c-3.4-1.1-19.7,11.8-36.6,28.7c-16.3,16.9-28.1,30.4-25.9,30.4
		C2449.6,9690.3,2473.3,9679.1,2499.7,9665z"/>
</g>
</svg>
